<svg width="17" height="15" viewBox="0 0 17 15" fill="none" xmlns="http://www.w3.org/2000/svg">
<path fill-rule="evenodd" clip-rule="evenodd" d="M0 1.2C0 0.88174 0.126428 0.576516 0.351472 0.351472C0.576515 0.126428 0.88174 0 1.2 0H15.6C15.9183 0 16.2235 0.126428 16.4485 0.351472C16.6736 0.576516 16.8 0.88174 16.8 1.2C16.8 1.51826 16.6736 1.82348 16.4485 2.04853C16.2235 2.27357 15.9183 2.4 15.6 2.4H1.2C0.88174 2.4 0.576515 2.27357 0.351472 2.04853C0.126428 1.82348 0 1.51826 0 1.2ZM0 7.2C0 6.88174 0.126428 6.57652 0.351472 6.35147C0.576515 6.12643 0.88174 6 1.2 6H15.6C15.9183 6 16.2235 6.12643 16.4485 6.35147C16.6736 6.57652 16.8 6.88174 16.8 7.2C16.8 7.51826 16.6736 7.82348 16.4485 8.04853C16.2235 8.27357 15.9183 8.4 15.6 8.4H1.2C0.88174 8.4 0.576515 8.27357 0.351472 8.04853C0.126428 7.82348 0 7.51826 0 7.2ZM7.2 13.2C7.2 12.8817 7.32643 12.5765 7.55147 12.3515C7.77652 12.1264 8.08174 12 8.4 12H15.6C15.9183 12 16.2235 12.1264 16.4485 12.3515C16.6736 12.5765 16.8 12.8817 16.8 13.2C16.8 13.5183 16.6736 13.8235 16.4485 14.0485C16.2235 14.2736 15.9183 14.4 15.6 14.4H8.4C8.08174 14.4 7.77652 14.2736 7.55147 14.0485C7.32643 13.8235 7.2 13.5183 7.2 13.2Z" fill="white"/>
</svg>
