<svg width="14" height="14" viewBox="0 0 14 14" fill="none" xmlns="http://www.w3.org/2000/svg">
<path d="M1.60936 0.262628C1.43292 0.0922047 1.1966 -0.00209627 0.951314 3.53673e-05C0.706025 0.00216701 0.471386 0.100561 0.297933 0.274025C0.124481 0.447489 0.0260937 0.682143 0.0239622 0.927449C0.0218307 1.17275 0.116125 1.40908 0.286537 1.58554L5.68914 6.9885L0.285602 12.3915C0.19625 12.4778 0.124981 12.581 0.0759512 12.6952C0.0269217 12.8093 0.00111474 12.9321 3.53223e-05 13.0563C-0.00104409 13.1805 0.0226259 13.3037 0.0696644 13.4187C0.116703 13.5337 0.186168 13.6381 0.274006 13.726C0.361844 13.8138 0.466297 13.8833 0.581268 13.9303C0.69624 13.9774 0.819428 14.001 0.943645 14C1.06786 13.9989 1.19062 13.9731 1.30476 13.924C1.41889 13.875 1.52212 13.8037 1.60842 13.7144L7.01196 8.31141L12.4146 13.7144C12.591 13.8848 12.8273 13.9791 13.0726 13.977C13.3179 13.9748 13.5525 13.8764 13.726 13.703C13.8994 13.5295 13.9978 13.2949 14 13.0496C14.0021 12.8043 13.9078 12.5679 13.7374 12.3915L8.33478 6.9885L13.7374 1.58554C13.9078 1.40908 14.0021 1.17275 14 0.927449C13.9978 0.682143 13.8994 0.447489 13.726 0.274025C13.5525 0.100561 13.3179 0.00216701 13.0726 3.53673e-05C12.8273 -0.00209627 12.591 0.0922047 12.4146 0.262628L7.01196 5.6656L1.60936 0.261692V0.262628Z" fill="white"/>
</svg>
