<svg width="1422" height="361" viewBox="0 0 1422 361" fill="none" xmlns="http://www.w3.org/2000/svg">
<path d="M1013.81 339.292C1012.88 339.292 1012.11 338.572 1012.07 337.636L1007.01 231.084C1006.97 230.123 1007.71 229.305 1008.67 229.263C1009.69 229.184 1010.45 229.957 1010.49 230.916L1015.55 337.468C1015.6 338.432 1014.85 339.247 1013.89 339.292C1013.87 339.292 1013.84 339.292 1013.81 339.292ZM968.062 327.669C968.041 327.669 968.02 327.669 967.996 327.669C967.034 327.632 966.285 326.828 966.322 325.861L969.858 230.682C969.889 229.721 970.539 228.966 971.664 229.006C972.626 229.045 973.376 229.849 973.342 230.816L969.805 325.992C969.768 326.931 968.993 327.669 968.062 327.669ZM1008.5 226.932C1007.58 226.932 1006.81 226.223 1006.76 225.303L1004.74 191.97C1004.68 191.008 1005.41 190.183 1006.37 190.122C1007.33 190.172 1008.16 190.798 1008.22 191.754L1010.24 225.09C1010.3 226.052 1009.57 226.88 1008.6 226.935C1008.57 226.932 1008.53 226.932 1008.5 226.932ZM971.851 226.678C971.822 226.678 971.796 226.678 971.769 226.678C970.81 226.633 970.066 225.816 970.11 224.856L971.627 191.783C971.669 190.813 972.474 190.08 973.449 190.12C974.409 190.162 975.153 190.979 975.111 191.938L973.591 225.017C973.549 225.955 972.776 226.678 971.851 226.678ZM1006.22 188.301C1005.3 188.301 1004.53 187.587 1004.48 186.656L1002.3 146.64H977.057L975.356 186.633C975.314 187.597 974.606 188.32 973.539 188.301C972.579 188.259 971.83 187.447 971.872 186.488L973.641 144.832C973.681 143.902 974.448 143.164 975.384 143.164H1003.95C1004.88 143.164 1005.64 143.886 1005.69 144.809L1007.97 186.464C1008.02 187.426 1007.28 188.249 1006.32 188.301C1006.29 188.301 1006.26 188.301 1006.22 188.301Z" fill="#E1F4FF"/>
<path d="M997.631 188.564H983.733C982.773 188.564 981.992 187.786 981.992 186.824V155.249C981.992 150.529 985.949 146.695 990.81 146.695C995.532 146.695 999.376 150.529 999.376 155.249V186.824C999.376 187.786 998.595 188.564 997.631 188.564ZM985.481 185.087H995.888V155.251C995.888 152.411 993.655 150.177 990.81 150.177C987.918 150.177 985.481 152.505 985.481 155.251V185.087Z" fill="#E1F4FF"/>
<path d="M1004.21 146.642H975.134C972.702 146.642 970.867 144.924 970.867 142.632C970.867 140.157 972.663 138.365 975.134 138.365H1004.21C1006.56 138.365 1008.47 140.281 1008.47 142.632C1008.47 144.811 1006.52 146.642 1004.21 146.642ZM975.134 141.841C974.59 141.841 974.356 142.083 974.356 142.632C974.356 143.126 974.953 143.166 975.134 143.166H1004.21C1004.6 143.166 1004.99 142.827 1004.99 142.632C1004.99 142.075 1004.48 141.841 1004.21 141.841H975.134Z" fill="#E1F4FF"/>
<path d="M1009.01 193.602H970.084C967.847 193.602 965.814 191.565 965.814 189.337C965.814 186.993 967.728 185.088 970.084 185.088H1009.01C1011.36 185.088 1013.28 186.995 1013.28 189.337C1013.28 191.568 1011.25 193.602 1009.01 193.602ZM970.084 188.564C969.768 188.564 969.303 188.808 969.303 189.337C969.303 189.634 969.784 190.12 970.084 190.12H1009.01C1009.31 190.12 1009.79 189.634 1009.79 189.337C1009.79 188.808 1009.33 188.564 1009.01 188.564H970.084Z" fill="#E1F4FF"/>
<path d="M974.884 141.597C974.116 141.597 973.411 141.09 973.204 140.312C972.867 139.088 970.291 128.148 982.156 121.902C983.008 121.455 984.06 121.776 984.512 122.63C984.962 123.484 984.633 124.54 983.781 124.987C974.316 129.967 976.309 138.452 976.564 139.401C976.819 140.326 976.27 141.282 975.344 141.534C975.189 141.579 975.034 141.597 974.884 141.597Z" fill="#E1F4FF"/>
<path d="M982.72 125.184C982.008 125.184 981.34 124.743 981.083 124.039C980.759 123.129 981.23 122.136 982.131 121.805C982.16 121.797 985.316 120.63 987.753 117.974C988.407 117.261 989.509 117.225 990.219 117.868C990.929 118.52 990.976 119.619 990.327 120.333C987.287 123.644 983.472 125.032 983.309 125.084C983.112 125.155 982.915 125.184 982.72 125.184Z" fill="#E1F4FF"/>
<path d="M995.86 125.436C995.61 125.436 995.358 125.384 995.113 125.278C994.593 125.024 989.929 122.785 987.736 120.307C987.097 119.592 987.163 118.491 987.886 117.85C988.595 117.208 989.702 117.266 990.347 117.999C991.803 119.642 995.358 121.534 996.607 122.122C997.477 122.53 997.85 123.573 997.438 124.443C997.138 125.071 996.512 125.436 995.86 125.436Z" fill="#E1F4FF"/>
<path d="M982.723 125.436C982.076 125.436 981.453 125.079 981.153 124.448C980.733 123.581 981.098 122.543 981.966 122.122C982.281 121.983 989.69 118.488 995.722 121.931C996.558 122.411 996.849 123.476 996.371 124.303C995.898 125.142 994.838 125.436 993.994 124.955C989.532 122.409 983.538 125.228 983.48 125.265C983.233 125.384 982.978 125.436 982.723 125.436Z" fill="#E1F4FF"/>
<path d="M1003.7 141.597C1003.58 141.597 1003.47 141.592 1003.35 141.568C1002.41 141.371 1001.8 140.449 1001.99 139.511C1003.97 129.83 994.435 125.058 994.34 125.008C993.473 124.587 993.115 123.544 993.536 122.677C993.954 121.815 995.008 121.447 995.868 121.876C1000.05 123.912 1007.42 130.363 1005.41 140.202C1005.24 141.03 1004.51 141.597 1003.7 141.597Z" fill="#E1F4FF"/>
<path d="M989.04 117.101C986.819 117.101 986.795 115.196 986.795 115.107C986.795 115.025 986.821 113.12 989.04 113.12C991.259 113.12 991.286 115.025 991.286 115.107C991.288 115.194 991.259 117.101 989.04 117.101ZM988.964 113.638C988.435 113.743 987.802 114.295 987.802 115.107C987.802 116 988.57 116.581 989.114 116.597C989.513 116.578 990.281 115.998 990.281 115.107C990.281 114.295 989.645 113.743 989.114 113.638V113.62C989.069 113.625 989.016 113.625 988.964 113.62V113.638Z" fill="#E1F4FF"/>
<path d="M989.041 118.87C988.021 118.87 986.543 118.076 986.543 116.628C986.543 115.183 988.021 114.379 989.041 114.379C990.471 114.379 991.547 115.343 991.547 116.628C991.547 117.737 990.608 118.87 989.041 118.87ZM989.041 115.391C988.641 115.391 988.06 115.869 988.06 116.626C988.06 117.383 988.641 117.861 989.041 117.861C989.99 117.861 990.032 116.639 990.032 116.626C990.032 116.618 989.993 115.391 989.041 115.391Z" fill="#E1F4FF"/>
<path d="M989.041 120.635C988.021 120.635 986.543 119.839 986.543 118.391C986.543 116.946 988.021 116.149 989.041 116.149C990.398 116.149 991.799 116.985 991.799 118.391C991.799 119.797 990.398 120.635 989.041 120.635ZM989.041 117.153C988.883 117.153 988.313 117.602 988.313 118.391C988.313 119.182 988.886 119.631 989.041 119.631C989.99 119.631 990.032 118.404 990.032 118.391C990.032 118.383 989.993 117.153 989.041 117.153Z" fill="#E1F4FF"/>
<path d="M989.039 116.35C988.074 116.35 987.293 115.572 987.293 114.61V112.836C987.293 111.875 988.074 111.097 989.039 111.097C989.999 111.097 990.785 111.875 990.785 112.836V114.61C990.785 115.572 990.001 116.35 989.039 116.35Z" fill="#E1F4FF"/>
<path d="M1011.03 232.487H968.063C965.565 232.487 963.535 230.461 963.535 227.965C963.535 225.474 965.565 223.453 968.063 223.453H1011.03C1013.52 223.453 1015.56 225.474 1015.56 227.965C1015.56 230.461 1013.52 232.487 1011.03 232.487ZM968.063 226.932C967.508 226.932 967.024 227.421 967.024 227.967C967.024 228.522 967.508 229.008 968.063 229.008H1011.03C1011.59 229.008 1012.07 228.519 1012.07 227.967C1012.07 227.421 1011.59 226.932 1011.03 226.932H968.063Z" fill="#E1F4FF"/>
<path d="M1013.82 287.526H965.284C962.694 287.526 960.504 285.34 960.504 282.752C960.504 280.166 962.694 277.979 965.284 277.979H1013.82C1016.41 277.979 1018.59 280.166 1018.59 282.752C1018.6 285.34 1016.41 287.526 1013.82 287.526ZM965.284 281.461C964.745 281.461 963.993 281.95 963.993 282.752C963.993 283.553 964.747 284.05 965.284 284.05H1013.82C1014.34 284.05 1015.1 283.579 1015.1 282.752C1015.1 281.947 1014.35 281.461 1013.82 281.461H965.284Z" fill="#E1F4FF"/>
<path d="M1053.24 187.295C1052.81 187.295 1052.38 187.14 1052.04 186.822C1051.43 186.238 1037.11 172.366 1038.95 153.104C1040.33 138.644 1050.44 125.289 1068.99 113.393C1101.45 92.6625 1107.38 83.5677 1107.87 72.1184C1107.9 71.1592 1108.7 70.4156 1109.68 70.4524C1110.64 70.4944 1111.39 71.3038 1111.35 72.2629C1110.81 84.9446 1104.62 94.7699 1070.87 116.331C1053.28 127.604 1043.72 140.076 1042.43 153.404C1040.73 170.965 1054.31 184.165 1054.45 184.299C1055.14 184.961 1055.17 186.07 1054.51 186.764C1054.16 187.119 1053.7 187.295 1053.24 187.295Z" fill="#E1F4FF"/>
<path d="M1165.97 187.295C1165.51 187.295 1165.05 187.121 1164.71 186.761C1164.05 186.068 1164.08 184.959 1164.77 184.297C1164.91 184.163 1178.48 170.963 1176.78 153.402C1175.5 140.073 1165.93 127.602 1148.36 116.323C1114.6 94.7755 1108.4 84.9449 1107.86 72.2631C1107.82 71.3066 1108.57 70.4947 1109.53 70.4526C1110.48 70.4158 1111.31 71.1569 1111.35 72.1186C1111.83 83.5679 1117.77 92.668 1150.23 113.388C1168.78 125.282 1178.88 138.644 1180.26 153.105C1182.1 172.361 1167.78 186.238 1167.17 186.822C1166.83 187.14 1166.4 187.295 1165.97 187.295Z" fill="#E1F4FF"/>
<path d="M1109.62 60.0409C1107.47 60.0409 1105.85 58.7507 1105.85 57.0321C1105.85 55.3214 1107.47 54.0364 1109.62 54.0364C1111.61 54.0364 1113.12 55.3188 1113.12 57.0321C1113.12 58.7507 1111.61 60.0409 1109.62 60.0409Z" fill="#E1F4FF"/>
<path d="M1109.86 66.356C1107.28 66.356 1105.34 64.8502 1105.34 62.8452C1105.34 60.8454 1107.28 59.3397 1109.86 59.3397C1112.22 59.3397 1114.13 60.9137 1114.13 62.8452C1114.13 64.7845 1112.22 66.356 1109.86 66.356Z" fill="#E1F4FF"/>
<path d="M1109.86 73.4246C1107.55 73.4246 1105.09 71.8085 1105.09 69.4067C1105.09 67.1994 1107.6 65.6648 1109.86 65.6648C1112.59 65.6648 1114.88 67.3702 1114.88 69.4067C1114.89 71.6614 1112.68 73.4246 1109.86 73.4246ZM1108.59 69.6459C1108.78 69.6459 1109.25 69.9428 1109.86 69.9428C1110.74 69.9428 1111.31 69.5486 1111.4 69.3752C1111.31 69.5224 1110.71 69.1387 1109.86 69.1387C1109.21 69.1387 1108.63 69.4935 1108.51 69.6722C1108.53 69.6538 1108.55 69.6459 1108.59 69.6459Z" fill="#E1F4FF"/>
<path d="M1109.61 56.7643C1109.59 56.7643 1109.56 56.7643 1109.54 56.7643C1108.58 56.7275 1107.83 55.9181 1107.87 54.9537L1108.12 48.6365C1108.16 47.68 1108.98 46.9363 1109.93 46.9705C1110.89 47.0047 1111.64 47.8166 1111.6 48.7837L1111.35 55.0982C1111.32 56.0285 1110.54 56.7643 1109.61 56.7643Z" fill="#E1F4FF"/>
<path d="M1117.7 26.213C1117.34 26.213 1116.97 26.1026 1116.67 25.8818C1116.06 25.4325 1115.81 24.6415 1116.05 23.9241L1117.66 19.0496L1113.62 16.0223C1113.02 15.5703 1112.77 14.7873 1113.01 14.0778C1113.24 13.363 1113.92 12.8874 1114.66 12.8874H1119.73L1121.35 8.02073C1121.58 7.30072 1122.34 6.78566 1123.03 6.83033C1123.79 6.84347 1124.46 7.35059 1124.68 8.08112L1126.09 12.8874H1131.35C1132.11 12.8874 1132.79 13.3788 1133.02 14.0961C1133.25 14.8162 1132.98 15.6072 1132.37 16.0513L1128.1 19.0759L1129.72 23.9215C1129.97 24.6415 1129.71 25.443 1129.1 25.8871C1128.49 26.3364 1127.65 26.3364 1127.02 25.8687L1122.98 22.8467L1118.72 25.895C1118.41 26.1078 1118.05 26.213 1117.7 26.213ZM1119.9 16.3639L1120.76 17.013C1121.36 17.4624 1121.61 18.2454 1121.37 18.9576L1121.04 19.943L1121.98 19.265C1122.6 18.8288 1123.44 18.8367 1124.05 19.2913L1124.64 19.7354L1124.38 18.9602C1124.14 18.2323 1124.4 17.4335 1125.02 16.9815L1125.89 16.3639H1124.78C1124.01 16.3639 1123.33 15.8594 1123.1 15.1157L1122.9 14.3984L1122.64 15.1762C1122.4 15.891 1121.73 16.3613 1120.98 16.3613H1119.9V16.3639Z" fill="#E1F4FF"/>
<path d="M1114.66 49.9345C1112.39 49.9345 1110.22 49.6534 1108.37 49.1147C1107.78 48.9412 1107.36 48.4892 1107.19 47.9453C1106.76 48.187 1106.21 48.2553 1105.72 48.0635C1095.97 44.4503 1089.67 35.395 1089.67 24.9784C1089.67 11.5267 1100.17 0.55304 1113.59 0.00383088C1114.33 -0.0513528 1115.1 0.476775 1115.33 1.24146C1115.56 1.99827 1115.25 2.82076 1114.56 3.23332C1109.07 6.57587 1105.79 12.3465 1105.79 18.6611C1105.79 28.5653 1113.85 36.6195 1123.76 36.6195C1127.9 36.6195 1131.82 35.2373 1134.77 32.7383C1135.39 32.2153 1136.28 32.1811 1136.93 32.662C1137.59 33.1403 1137.82 34.0075 1137.5 34.7485C1133.64 43.8275 1124.46 49.9345 1114.66 49.9345ZM1108.86 45.7038C1109.02 45.7038 1109.18 45.7222 1109.35 45.7695C1110.88 46.2136 1112.72 46.4579 1114.66 46.4579C1120.9 46.4579 1126.84 43.5726 1130.85 38.9083C1128.63 39.694 1126.23 40.0987 1123.77 40.0987C1111.94 40.0987 1102.31 30.4862 1102.31 18.6611C1102.31 13.4292 1104.19 8.50995 1107.53 4.66286C1099.12 7.59022 1093.16 15.5788 1093.16 24.9784C1093.16 33.9155 1098.57 41.6938 1106.93 44.7972C1107.47 44.9943 1107.84 45.42 1108 45.9298C1108.25 45.78 1108.55 45.7038 1108.86 45.7038Z" fill="#E1F4FF"/>
<path d="M1069.93 187.295C1069.39 187.295 1068.87 187.058 1068.53 186.601C1068.26 186.225 1041.24 149.073 1080.37 113.567C1103.45 92.723 1107.62 83.6046 1107.87 72.1527C1107.89 71.1936 1108.61 70.4919 1109.65 70.4525C1110.61 70.4683 1111.37 71.2645 1111.35 72.2262C1111.09 84.7004 1106.74 94.4521 1082.71 116.152C1045.9 149.546 1071.06 184.173 1071.32 184.52C1071.9 185.292 1071.74 186.38 1070.97 186.956C1070.66 187.19 1070.29 187.295 1069.93 187.295Z" fill="#E1F4FF"/>
<path d="M1089.63 187.294C1088.92 187.294 1088.26 186.864 1088 186.154C1087.86 185.786 1074.81 149.157 1094.18 114.016C1105.5 93.5664 1107.61 84.2272 1107.87 72.1525C1107.89 71.1933 1108.62 70.4917 1109.65 70.4523C1110.61 70.468 1111.38 71.2642 1111.35 72.226C1111.09 84.8867 1108.91 94.6122 1097.23 115.703C1078.65 149.415 1091.14 184.609 1091.27 184.958C1091.6 185.865 1091.13 186.864 1090.23 187.197C1090.04 187.266 1089.83 187.294 1089.63 187.294Z" fill="#E1F4FF"/>
<path d="M1149.54 187.295C1149.18 187.295 1148.82 187.19 1148.5 186.956C1147.73 186.391 1147.57 185.295 1148.14 184.525C1149.18 183.109 1173.26 149.489 1136.49 116.15C1112.82 94.7675 1108.4 84.9632 1107.86 72.2605C1107.82 71.3039 1108.57 70.492 1109.53 70.4499C1110.48 70.4131 1111.31 71.1542 1111.35 72.1159C1111.84 83.8228 1116.09 93.0122 1138.83 113.564C1177.97 149.066 1151.21 186.217 1150.93 186.591C1150.6 187.058 1150.07 187.295 1149.54 187.295Z" fill="#E1F4FF"/>
<path d="M1129.58 187.294C1129.38 187.294 1129.17 187.26 1128.97 187.189C1128.08 186.856 1127.61 185.852 1127.95 184.948C1128.08 184.596 1140.82 149.41 1122.24 115.703C1110.35 94.2154 1108.13 84.5609 1107.87 72.226C1107.84 71.2642 1108.61 70.468 1109.57 70.4523C1110.53 70.4943 1111.33 71.1933 1111.35 72.1525C1111.6 83.904 1113.75 93.1669 1125.29 114.016C1144.66 149.163 1131.35 185.799 1131.21 186.167C1130.95 186.866 1130.29 187.294 1129.58 187.294Z" fill="#E1F4FF"/>
<path d="M1176.09 197.141C1175.13 197.141 1174.35 196.363 1174.35 195.402C1174.35 191.071 1170.82 187.552 1166.48 187.552H1054.51C1050.17 187.552 1046.64 191.071 1046.64 195.402C1046.64 196.363 1045.86 197.141 1044.9 197.141C1043.94 197.141 1043.16 196.363 1043.16 195.402C1043.16 189.153 1048.25 184.071 1054.51 184.071H1166.48C1172.74 184.071 1177.83 189.155 1177.83 195.402C1177.83 196.363 1177.06 197.141 1176.09 197.141Z" fill="#E1F4FF"/>
<path d="M1182.15 305.706C1181.23 305.706 1180.46 304.988 1180.41 304.061L1174.35 194.983C1174.3 194.024 1175.03 193.204 1176 193.152C1176.95 193.081 1177.78 193.838 1177.83 194.794L1183.89 303.869C1183.95 304.83 1183.21 305.65 1182.25 305.706C1182.22 305.706 1182.18 305.706 1182.15 305.706Z" fill="#E1F4FF"/>
<path d="M1041.36 331.453C1041.35 331.453 1041.33 331.453 1041.32 331.453C1040.35 331.427 1039.59 330.63 1039.62 329.663L1043.15 194.842C1043.18 193.898 1043.96 193.149 1044.9 193.149C1044.91 193.149 1044.93 193.149 1044.94 193.149C1045.91 193.17 1046.67 193.972 1046.64 194.934L1043.11 329.758C1043.08 330.707 1042.3 331.453 1041.36 331.453Z" fill="#E1F4FF"/>
<path d="M1061.74 344.551C1060.78 344.551 1060 343.773 1060 342.811V246.371C1060.01 245.982 1061.12 210.51 1112.13 197.967C1112.41 197.899 1112.7 197.912 1112.97 197.967C1113.46 198.098 1162.51 210.875 1165.35 252.554C1165.41 253.516 1164.68 254.352 1163.73 254.412C1162.59 254.402 1161.93 253.747 1161.86 252.796C1159.34 215.61 1117.15 202.763 1112.53 201.465C1064.52 213.458 1063.49 246.064 1063.48 246.392V342.811C1063.48 343.773 1062.71 344.551 1061.74 344.551Z" fill="#E1F4FF"/>
<path d="M1208.95 300.65C1208.92 300.65 1208.89 300.65 1208.87 300.65C1207.91 300.608 1207.17 299.796 1207.21 298.834L1210.23 231.423C1210.28 230.472 1211.07 229.783 1212.05 229.762C1213.01 229.807 1213.76 230.616 1213.72 231.578L1210.69 298.986C1210.64 299.922 1209.87 300.65 1208.95 300.65ZM1251.92 286.515C1251 286.515 1250.22 285.795 1250.18 284.865L1247.39 231.594C1247.34 230.632 1248.08 229.812 1249.04 229.765C1250 229.684 1250.83 230.454 1250.87 231.418L1253.66 284.686C1253.71 285.642 1252.97 286.468 1252.01 286.515C1251.98 286.515 1251.95 286.515 1251.92 286.515ZM1212.23 227.437C1212.21 227.437 1212.19 227.437 1212.17 227.437C1211.2 227.4 1210.46 226.593 1210.49 225.629L1211.75 192.301C1211.79 191.339 1212.59 190.556 1213.56 190.624C1214.52 190.663 1215.27 191.468 1215.23 192.432L1213.98 225.763C1213.94 226.701 1213.17 227.437 1212.23 227.437ZM1248.64 227.437C1247.72 227.437 1246.94 226.719 1246.9 225.792L1245.11 192.464C1245.06 191.499 1245.8 190.679 1246.76 190.627C1247.81 190.603 1248.55 191.313 1248.59 192.272L1250.38 225.6C1250.43 226.564 1249.69 227.384 1248.73 227.437C1248.69 227.437 1248.67 227.437 1248.64 227.437ZM1246.6 189.063C1245.68 189.063 1244.91 188.346 1244.86 187.421L1242.68 147.407H1217.19L1215.49 187.394C1215.45 188.356 1214.64 189.021 1213.68 189.063C1212.72 189.021 1211.97 188.206 1212.01 187.253L1213.78 145.599C1213.82 144.669 1214.59 143.931 1215.52 143.931H1244.33C1245.26 143.931 1246.03 144.653 1246.08 145.576L1248.34 187.226C1248.4 188.191 1247.66 189.011 1246.69 189.063C1246.66 189.063 1246.63 189.063 1246.6 189.063Z" fill="#E1F4FF"/>
<path d="M1238.02 189.063H1224.11C1223.14 189.063 1222.37 188.288 1222.37 187.321V156.016C1222.37 151.154 1226.21 147.199 1230.94 147.199C1235.8 147.199 1239.76 151.154 1239.76 156.016V187.321C1239.76 188.288 1238.98 189.063 1238.02 189.063ZM1225.85 185.578H1236.28V156.013C1236.28 153.07 1233.88 150.681 1230.94 150.681C1228.18 150.681 1225.85 153.128 1225.85 156.013V185.578Z" fill="#E1F4FF"/>
<path d="M1244.59 147.407H1215.26C1213.03 147.407 1211 145.376 1211 143.139C1211 140.903 1213.03 138.869 1215.26 138.869H1244.59C1246.76 138.869 1248.59 140.827 1248.59 143.139C1248.59 145.457 1246.76 147.407 1244.59 147.407ZM1215.26 142.354C1214.96 142.354 1214.47 142.84 1214.47 143.139C1214.47 143.431 1214.97 143.93 1215.26 143.93H1244.59C1244.77 143.93 1245.11 143.541 1245.11 143.139C1245.11 142.743 1244.77 142.354 1244.59 142.354H1215.26Z" fill="#E1F4FF"/>
<path d="M1249.13 194.106H1210.45C1207.99 194.106 1206.19 192.311 1206.19 189.844C1206.19 187.495 1208.1 185.579 1210.45 185.579H1249.13C1251.48 185.579 1253.39 187.497 1253.39 189.844C1253.39 192.314 1251.6 194.106 1249.13 194.106ZM1210.45 189.063C1209.9 189.063 1209.67 189.571 1209.67 189.846C1209.67 190.396 1209.9 190.63 1210.45 190.63H1249.13C1249.69 190.63 1249.92 190.406 1249.92 189.846C1249.92 189.529 1249.66 189.063 1249.13 189.063H1210.45Z" fill="#E1F4FF"/>
<path d="M1215.26 142.354C1214.47 142.354 1213.76 141.826 1213.56 141.029C1212.85 138.176 1211.4 128.395 1222.53 122.406C1223.37 121.962 1224.43 122.267 1224.89 123.116C1225.34 123.964 1225.03 125.018 1224.18 125.475C1215.51 130.14 1216.23 137.322 1216.95 140.194C1217.18 141.124 1216.61 142.07 1215.67 142.306C1215.54 142.341 1215.4 142.354 1215.26 142.354Z" fill="#E1F4FF"/>
<path d="M1223.09 125.938C1222.39 125.938 1221.73 125.518 1221.47 124.824C1221.12 123.928 1221.57 122.922 1222.46 122.575C1222.5 122.562 1225.45 121.387 1228.14 118.478C1228.8 117.766 1229.9 117.724 1230.61 118.383C1231.31 119.032 1231.35 120.139 1230.7 120.846C1227.43 124.38 1223.87 125.773 1223.71 125.825C1223.51 125.902 1223.3 125.938 1223.09 125.938Z" fill="#E1F4FF"/>
<path d="M1235.99 125.938C1235.73 125.938 1235.47 125.883 1235.22 125.76C1235.02 125.657 1230.34 123.308 1228.12 120.819C1227.48 120.105 1227.54 119.001 1228.26 118.36C1228.98 117.716 1230.09 117.771 1230.72 118.502C1232.19 120.152 1235.59 122.047 1236.77 122.638C1237.63 123.069 1237.99 124.112 1237.56 124.976C1237.25 125.586 1236.63 125.938 1235.99 125.938Z" fill="#E1F4FF"/>
<path d="M1223.09 125.939C1222.45 125.939 1221.82 125.573 1221.52 124.953C1221.11 124.086 1221.46 123.045 1222.34 122.622C1222.65 122.47 1230.07 118.993 1236.09 122.428C1236.93 122.906 1237.22 123.965 1236.74 124.801C1236.26 125.642 1235.19 125.925 1234.37 125.455C1229.9 122.922 1223.91 125.731 1223.84 125.77C1223.6 125.886 1223.34 125.939 1223.09 125.939Z" fill="#E1F4FF"/>
<path d="M1244.08 142.102C1243.97 142.102 1243.85 142.091 1243.72 142.068C1242.79 141.873 1242.18 140.951 1242.38 140.007C1244.35 130.581 1234.81 125.812 1234.72 125.765C1233.85 125.342 1233.49 124.298 1233.91 123.431C1234.33 122.572 1235.38 122.212 1236.24 122.627C1240.42 124.666 1247.81 131.078 1245.79 140.722C1245.62 141.545 1244.89 142.102 1244.08 142.102Z" fill="#E1F4FF"/>
<path d="M1229.16 117.86C1228.42 117.86 1227.17 117.395 1227.17 115.624C1227.17 114.662 1228.2 113.619 1229.16 113.619C1230.62 113.619 1231.41 114.649 1231.41 115.624C1231.41 117.175 1230.28 117.86 1229.16 117.86ZM1229.16 114.379C1228.63 114.379 1227.94 114.983 1227.93 115.661C1227.93 116.591 1228.73 117.101 1229.16 117.101V115.364L1230.65 115.627C1230.63 115.146 1230.06 114.379 1229.16 114.379Z" fill="#E1F4FF"/>
<path d="M1229.42 119.369C1227.8 119.369 1226.93 118.218 1226.93 117.13C1226.93 116.528 1227.17 115.13 1229.42 115.13C1231.65 115.13 1231.67 117.046 1231.67 117.13C1231.67 118.344 1230.64 119.369 1229.42 119.369ZM1229.42 115.885C1228.71 115.885 1228.19 116.418 1228.19 117.133C1228.19 118.024 1228.95 118.599 1229.5 118.62L1229.01 116.881L1230.41 117.133C1230.41 116.323 1229.75 115.885 1229.42 115.885Z" fill="#E1F4FF"/>
<path d="M1229.42 121.137C1227.8 121.137 1226.93 119.983 1226.93 118.893C1226.93 117.805 1227.8 116.649 1229.42 116.649C1231.05 116.649 1231.92 117.805 1231.92 118.893C1231.92 119.983 1231.05 121.137 1229.42 121.137ZM1229.42 117.658C1229.09 117.658 1228.44 118.091 1228.44 118.896C1228.44 120.401 1230.41 120.375 1230.41 118.896C1230.41 118.091 1229.75 117.658 1229.42 117.658Z" fill="#E1F4FF"/>
<path d="M1229.42 116.851C1228.46 116.851 1227.68 116.071 1227.68 115.106V113.593C1227.68 112.628 1228.46 111.85 1229.42 111.85C1230.38 111.85 1231.16 112.628 1231.16 113.593V115.106C1231.16 116.071 1230.38 116.851 1229.42 116.851Z" fill="#E1F4FF"/>
<path d="M1251.4 233.239H1208.18C1205.69 233.239 1203.66 231.213 1203.66 228.722C1203.66 226.228 1205.68 224.207 1208.18 224.207H1251.4C1253.9 224.207 1255.93 226.228 1255.93 228.722C1255.93 231.216 1253.9 233.239 1251.4 233.239ZM1208.19 227.686C1207.63 227.686 1207.14 228.175 1207.14 228.724C1207.14 229.284 1207.62 229.765 1208.19 229.765H1251.4C1251.97 229.765 1252.45 229.284 1252.45 228.724C1252.45 228.175 1251.95 227.686 1251.4 227.686H1208.19Z" fill="#E1F4FF"/>
<path d="M1253.94 288.031H1205.66C1202.94 288.031 1200.89 285.981 1200.89 283.262C1200.89 280.542 1202.94 278.495 1205.66 278.495H1253.94C1256.66 278.495 1258.71 280.542 1258.71 283.262C1258.72 285.979 1256.66 288.031 1253.94 288.031ZM1205.66 281.974C1204.86 281.974 1204.37 282.457 1204.37 283.259C1204.37 284.066 1204.86 284.549 1205.66 284.549H1253.94C1254.75 284.549 1255.23 284.063 1255.23 283.259C1255.23 282.455 1254.75 281.974 1253.94 281.974H1205.66Z" fill="#E1F4FF"/>
<path d="M1195.3 318.829C1187.23 318.829 1180.41 312.136 1180.41 304.216C1180.41 303.257 1181.19 302.479 1182.15 302.479C1183.12 302.479 1183.9 303.257 1183.9 304.216C1183.9 310.252 1189.12 315.352 1195.3 315.352C1201.07 315.352 1205.76 310.591 1206.46 304.032L1207.22 295.725C1207.31 294.761 1208.13 294.03 1209.11 294.146C1210.07 294.23 1210.78 295.079 1210.69 296.035L1209.93 304.371C1209.03 312.761 1202.88 318.829 1195.3 318.829Z" fill="#E1F4FF"/>
<path d="M1027.21 352.656C1018.86 352.656 1012.07 345.882 1012.07 337.549C1012.07 336.587 1012.85 335.81 1013.81 335.81C1014.78 335.81 1015.56 336.587 1015.56 337.549C1015.56 343.851 1020.89 349.18 1027.21 349.18C1033.25 349.18 1038.16 344.208 1038.87 337.373L1039.63 328.809C1039.71 327.845 1040.58 327.151 1041.52 327.225C1042.48 327.306 1043.19 328.15 1043.1 329.109L1042.35 337.702C1041.44 346.384 1035.07 352.656 1027.21 352.656Z" fill="#E1F4FF"/>
<path d="M1275.42 313.789C1262.16 313.789 1251.52 303.207 1250.69 289.172L1249.17 264.938C1249.11 263.982 1249.84 263.149 1250.8 263.088C1251.7 263.046 1252.58 263.758 1252.65 264.723L1254.16 288.964C1254.89 301.131 1264.03 310.307 1275.42 310.307C1287.29 310.307 1296.93 300.779 1296.93 289.069V263.319C1296.93 262.355 1297.71 261.577 1298.68 261.577C1299.64 261.577 1300.42 262.355 1300.42 263.319V289.069C1300.42 302.702 1289.2 313.789 1275.42 313.789Z" fill="#E1F4FF"/>
<path d="M944.803 361C931.023 361 919.812 349.798 919.812 336.028V208.782C919.812 207.818 920.594 207.04 921.556 207.04C922.521 207.04 923.299 207.818 923.299 208.782V336.028C923.299 347.877 932.945 357.523 944.803 357.523C956.29 357.523 965.829 347.861 966.065 335.994L966.57 314.527C966.594 313.568 967.19 312.772 968.355 312.827C969.315 312.848 970.077 313.644 970.056 314.614L969.554 336.073C969.278 349.813 958.172 361 944.803 361Z" fill="#E1F4FF"/>
<path d="M874.788 239.054C873.826 239.054 873.045 238.277 873.045 237.315V198.431C873.045 184.662 884.148 173.459 897.793 173.459C911.539 173.459 922.518 184.415 922.787 198.392L923.297 219.843C923.318 220.802 922.558 221.606 921.596 221.622C921.582 221.622 921.566 221.622 921.553 221.622C920.609 221.622 919.834 220.87 919.81 219.927L919.3 198.473C919.066 186.391 909.622 176.939 897.793 176.939C886.072 176.939 876.534 186.58 876.534 198.431V237.315C876.534 238.277 875.753 239.054 874.788 239.054Z" fill="#E1F4FF"/>
<path d="M1298.43 286.77C1297.46 286.77 1296.68 285.992 1296.68 285.03V254.727C1296.68 241.196 1308.13 229.763 1321.68 229.763C1335.19 229.763 1346.4 240.944 1346.67 254.69C1346.7 255.652 1345.93 256.448 1344.97 256.466C1344.96 256.466 1344.94 256.466 1344.93 256.466C1343.99 256.466 1343.21 255.715 1343.19 254.761C1342.95 242.902 1333.3 233.242 1321.68 233.242C1310.02 233.242 1300.17 243.086 1300.17 254.729V285.033C1300.17 285.992 1299.39 286.77 1298.43 286.77Z" fill="#E1F4FF"/>
<path d="M1420.26 279.191H1368.19C1354.4 279.191 1343.19 267.992 1343.19 254.222C1343.19 253.263 1343.96 252.485 1344.93 252.485C1345.89 252.485 1346.67 253.263 1346.67 254.222C1346.67 266.073 1356.32 275.715 1368.19 275.715H1420.26C1421.22 275.715 1422 276.493 1422 277.452C1422 278.416 1421.22 279.191 1420.26 279.191Z" fill="#E1F4FF"/>
<path d="M851.545 258.495H1.74305C0.780772 258.495 0 257.717 0 256.758C0 255.796 0.780772 255.018 1.74305 255.018H851.545C863.402 255.018 873.049 245.379 873.049 233.531C873.049 232.566 873.83 231.788 874.792 231.788C875.757 231.788 876.538 232.566 876.538 233.531C876.535 247.303 865.324 258.495 851.545 258.495Z" fill="#E1F4FF"/>
</svg>
