<svg width="92" height="72" viewBox="0 0 92 72" fill="none" xmlns="http://www.w3.org/2000/svg">
<path fill-rule="evenodd" clip-rule="evenodd" d="M60.3475 0.415133H43.3365C34.9676 0.415133 28.1843 7.05713 28.1843 15.2494V15.3987L30.9117 15.4617C31.4711 12.0855 33.2415 9.09862 35.7904 6.91884C35.7961 6.90754 35.7961 6.90754 35.8016 6.90754C35.8593 6.85674 35.9236 6.80027 35.9871 6.74942C36.0153 6.72056 36.0503 6.69295 36.0797 6.67069C36.1079 6.6475 36.1361 6.62552 36.1656 6.60888C38.8074 4.47957 42.2212 3.20381 45.9409 3.20381C47.8208 3.20381 49.6215 3.53129 51.2809 4.12322L50.4341 4.74523L50.4863 4.7562L31.1017 18.9289C30.9976 19.0073 30.9005 19.086 30.8008 19.1657C29.1462 20.5365 28.1843 22.5585 28.1843 24.6931V30.5249C28.1843 30.5249 29.1529 27.9389 31.0665 25.5452C31.4429 25.0759 31.8511 24.6135 32.301 24.1853C32.6422 23.851 32.9982 23.541 33.3792 23.2533C35.2434 21.8581 48.5238 11.9713 55.7277 6.61319C58.4846 4.55825 60.3475 3.16956 60.3475 3.16956V0.415133ZM63.2604 5.96489V5.97023C62.6545 7.25728 61.4257 9.52147 59.5811 11.301C59.2408 11.6329 58.8825 11.9438 58.5028 12.2314C56.6399 13.6257 43.3571 23.5125 36.1531 28.8706C33.3962 30.9212 31.5333 32.309 31.5333 32.309V35.071H48.5452C56.9145 35.071 63.699 28.4293 63.699 20.2345V20.0865L60.9646 20.0397C59.8117 26.9794 53.5258 32.2814 45.9409 32.2814C44.0962 32.2814 42.325 31.9658 40.6869 31.3893L52.0018 23.0941L52.1466 22.9878L60.7803 16.5575C60.8831 16.4779 60.9828 16.3991 61.0799 16.3207C62.0485 15.5183 62.7809 14.4903 63.2196 13.3504V13.3438C63.5304 12.536 63.699 11.6728 63.699 10.7929V4.95893C63.699 4.95893 63.5542 5.34948 63.2604 5.96489ZM85.6214 44.7274L83.3086 52.0831L80.4216 44.7274H75.9124C76.1998 44.9586 76.3693 45.1412 76.5035 45.5041C76.6721 45.8683 76.723 46.1161 76.6721 46.5289L75.5926 55.6042C75.5247 56.0669 75.4401 56.3313 75.17 56.7275C75.0014 56.9433 74.8829 57.0751 74.6477 57.241H78.682C78.4456 57.1412 78.31 57.0584 78.1415 56.8934C77.8884 56.6622 77.6692 56.464 77.7028 56.1167L78.3789 49.0419L80.6917 55.092C80.9448 55.8024 81.4344 56.2981 81.8728 56.6278C82.4979 57.0751 82.9196 57.3395 83.6802 57.5221L86.3141 49.157L87.0059 55.8511C87.0398 56.182 86.9889 56.4132 86.8364 56.7276C86.7188 56.9766 86.5503 57.1247 86.2631 57.241H91.4641C91.1927 57.1246 91.0072 56.9766 90.8887 56.7276C90.7371 56.4132 90.7541 56.182 90.7371 55.8511L89.5548 46.1161C89.5051 45.7698 89.5391 45.5374 89.7073 45.2563C89.8771 44.9586 90.0623 44.8588 90.3654 44.7274L85.6214 44.7274ZM63.4379 44.7274C63.9115 44.8755 64.3162 45.3395 64.3162 45.9016C64.3332 46.0663 64.3005 46.166 64.2496 46.3307L60.889 55.851C60.7375 56.2315 60.5353 56.4298 60.2818 56.7275C60.1124 56.9267 60.0107 57.0751 59.8083 57.241H64.098C63.8099 57.1569 63.4053 56.9765 63.2197 56.5625C63.0503 56.182 63.1011 55.819 63.2354 55.405L63.9285 53.4218H67.7603L68.4364 55.4216C68.5889 55.8357 68.6216 56.1663 68.4194 56.5625C68.217 56.9587 67.8622 57.157 67.5761 57.241H73.6371C73.3161 56.9587 73.1309 56.7774 72.8774 56.4474C72.6234 56.1167 72.4548 55.9009 72.3033 55.5048L68.3189 44.7274H63.4379ZM65.8026 47.9675L67.1535 51.6037H64.4518L65.8026 47.9675ZM48.9884 44.7274L47.9589 47.5215C48.5837 47.141 48.9884 47.008 49.6801 46.7934C50.727 46.4791 52.0948 46.645 52.5004 46.6616L52.8541 46.6782L47.0802 57.241H57.4976L58.5444 54.149L58.0722 54.48C57.8866 54.5951 56.4341 55.3896 54.8811 55.3896C53.1582 55.405 52.4158 55.2566 52.1454 55.1914L57.8517 44.7274L48.9884 44.7274ZM39.0808 44.7274L36.767 52.0831L33.88 44.7274H29.3721C29.6592 44.9586 29.8278 45.1412 29.9633 45.5041C30.1318 45.8683 30.1828 46.1161 30.1318 46.5289L29.051 55.6042C28.9835 56.0669 28.8998 56.3313 28.6297 56.7275C28.4612 56.9433 28.3423 57.0751 28.1052 57.241H32.1415C31.9041 57.1412 31.7698 57.0584 31.6013 56.8934C31.3482 56.6622 31.1277 56.464 31.1617 56.1167L31.8374 49.0419L34.1502 55.092C34.4033 55.8024 34.8929 56.2981 35.3326 56.6278C35.9577 57.0751 36.3793 57.3395 37.1391 57.5221L39.7739 49.157L40.4657 55.8511C40.4983 56.182 40.4487 56.4132 40.2961 56.7276C40.1785 56.9766 40.0091 57.1247 39.7229 57.241H44.9226C44.6525 57.1246 44.4661 56.9766 44.3485 56.7276C44.1969 56.4132 44.2139 56.182 44.1969 55.8511L43.0146 46.1161C42.9636 45.7698 42.9989 45.5374 43.1671 45.2563C43.3344 44.9586 43.5208 44.8588 43.8249 44.7274L39.0808 44.7274ZM16.8976 44.7274C17.3712 44.8755 17.7759 45.3395 17.7759 45.9016C17.7916 46.0663 17.7589 46.166 17.708 46.3307L14.3487 55.851C14.1959 56.2315 13.9937 56.4298 13.7406 56.7275C13.5707 56.9267 13.4701 57.0751 13.2667 57.241H17.5554C17.2693 57.1569 16.8636 56.9765 16.6782 56.5625C16.5087 56.182 16.5596 55.819 16.6951 55.405L17.3869 53.4218H21.22L21.8948 55.4216C22.0473 55.8357 22.0813 56.1663 21.8791 56.5625C21.6757 56.9587 21.3206 57.157 21.0345 57.241H27.0956C26.7745 56.9587 26.5893 56.7774 26.3348 56.4474C26.0817 56.1167 25.9132 55.9009 25.7619 55.5048L21.7772 44.7274H16.8976ZM19.261 47.9675L20.6119 51.6037H17.9114L19.261 47.9675ZM2.44711 44.7274L1.41731 47.5215C2.04113 47.141 2.44711 47.008 3.13986 46.7934C4.1867 46.4791 5.55325 46.645 5.95793 46.6616L6.31393 46.6782L0.539062 57.241H10.9565L12.003 54.149L11.5307 54.48C11.3451 54.5951 9.89264 55.3896 8.33834 55.3896C6.61799 55.405 5.87526 55.2566 5.60423 55.1914L11.3112 44.7274L2.44711 44.7274ZM57.6381 63.729C57.3612 63.8008 57.1023 63.9084 56.8604 64.0377C56.3032 64.3422 55.87 64.7648 55.5537 65.3059C55.2439 65.8471 55.0879 66.449 55.0879 67.1253C55.0879 67.8069 55.2484 68.4212 55.5717 68.9566C55.894 69.4968 56.3484 69.9205 56.9405 70.2239C57.5272 70.5225 58.2135 70.6753 58.9899 70.6753C59.6003 70.6753 60.1463 70.579 60.6288 70.393C61.1184 70.2016 61.5164 69.9206 61.8384 69.5476L60.9522 68.5507C60.4459 69.0519 59.8073 69.2998 59.0306 69.2998C58.4203 69.2998 57.914 69.1536 57.499 68.855C57.0908 68.5573 56.8377 68.1501 56.7394 67.6432H62.2874C62.3053 67.4352 62.3098 67.2781 62.3098 67.1651C62.3098 66.4559 62.1608 65.8295 61.8555 65.2893C61.5514 64.7538 61.131 64.331 60.5837 64.0324C60.3431 63.8984 60.09 63.7965 59.8186 63.729C59.4796 63.6327 59.1223 63.5876 58.7369 63.5876C58.3456 63.5876 57.9829 63.6327 57.6381 63.729ZM57.3949 65.3448C57.7634 65.0349 58.2078 64.8834 58.7368 64.8834C59.2771 64.8834 59.726 65.0415 60.0899 65.3514C60.4517 65.6601 60.6641 66.0663 60.7397 66.5676H56.7281C56.8082 66.0607 57.0277 65.6501 57.3949 65.3448ZM40.3673 63.729C40.2519 63.75 40.1491 63.7789 40.0395 63.8078C39.5162 63.9537 39.0731 64.1673 38.6988 64.4439L39.3486 65.6202C39.6133 65.4079 39.9366 65.2385 40.3221 65.1133C40.7075 64.996 41.0984 64.933 41.4954 64.933C42.0764 64.933 42.5138 65.0625 42.8076 65.3225C43.1072 65.5816 43.2507 65.9534 43.2507 66.438V66.5399H41.4263C40.4138 66.5399 39.672 66.7313 39.1939 67.103C38.7216 67.4804 38.4852 67.9817 38.4852 68.6015C38.4852 69.0021 38.5948 69.3562 38.8142 69.6727C39.0267 69.987 39.3375 70.2348 39.7342 70.4108C40.1311 70.5846 40.5922 70.6753 41.1213 70.6753C41.6515 70.6753 42.1059 70.5956 42.4798 70.4384C42.8541 70.2746 43.1412 70.0435 43.3482 69.7402V70.5846H44.9079V66.5277C44.9079 65.5418 44.632 64.8103 44.0793 64.32C43.7685 64.0446 43.3831 63.8476 42.9175 63.729C42.5602 63.6327 42.1453 63.5876 41.6909 63.5876C41.2308 63.5876 40.7877 63.6327 40.3673 63.729ZM40.4714 69.2377C40.2349 69.0642 40.1141 68.8327 40.1141 68.5394C40.1141 67.9252 40.5922 67.6156 41.5473 67.6156H43.2507V68.4212C43.1187 68.7653 42.8937 69.0297 42.5714 69.2157C42.2494 69.4017 41.8809 69.4968 41.4669 69.4968C41.0411 69.4968 40.713 69.4127 40.4714 69.2377ZM35.8164 63.729C35.2118 63.8918 34.7574 64.207 34.4521 64.6751V63.6672H32.8753V70.5846H34.5325V67.2269C34.5325 66.5399 34.711 66.0098 35.0736 65.6434C35.4354 65.2717 35.9375 65.0923 36.5806 65.0923C36.6959 65.0923 36.8234 65.1023 36.966 65.1312V63.5875C36.5354 63.5875 36.1544 63.6327 35.8164 63.729ZM52.5841 63.6672L52.556 63.729L50.3236 68.7985L48.1544 63.729L48.1249 63.6672H46.4046L46.4328 63.729L49.4374 70.5846H51.1407L54.1443 63.729L54.1735 63.6672H52.5841ZM64.5604 70.5846H66.2176V63.7281H64.5604V70.5846ZM25.6646 63.7289V65.0138H26.8267V68.3424C26.8267 69.1027 27.0392 69.6837 27.4654 70.0777C27.8857 70.4783 28.4837 70.6753 29.2616 70.6753C29.5711 70.6753 29.865 70.6354 30.1408 70.557C30.4234 70.4827 30.6586 70.3644 30.8496 70.2073L30.3885 69.0573C30.1408 69.2445 29.8313 69.3396 29.4625 69.3396C29.1463 69.3396 28.8985 69.249 28.7313 69.0751C28.564 68.9001 28.4836 68.6401 28.4836 68.3025V65.0139H30.3769V63.729L28.438 63.729L26.7653 63.729L25.6646 63.7289Z" fill="white"/>
<path d="M26.7653 61.8908V63.729L28.438 63.729V61.8908H26.7653Z" fill="white"/>
</svg>
