<svg width="190" height="148" viewBox="0 0 190 148" fill="none" xmlns="http://www.w3.org/2000/svg">
<path fill-rule="evenodd" clip-rule="evenodd" d="M124.631 0.864087H89.4993C72.2156 0.864087 58.2067 14.6917 58.2067 31.7466V32.0575L63.8394 32.1887C64.9947 25.16 68.6509 18.9417 73.9149 14.4038C73.9268 14.3803 73.9268 14.3803 73.938 14.3803C74.0572 14.2745 74.1901 14.1569 74.3212 14.0511C74.3794 13.991 74.4516 13.9335 74.5125 13.8872C74.5706 13.8389 74.629 13.7931 74.6899 13.7585C80.1458 9.32559 87.1959 6.66968 94.878 6.66968C98.7603 6.66968 102.479 7.35144 105.906 8.58373L104.157 9.87867L104.265 9.9015L64.2319 39.4067C64.0167 39.57 63.8162 39.7339 63.6104 39.8998C60.1933 42.7536 58.2067 46.9631 58.2067 51.4071V63.5479C58.2067 63.5479 60.2071 58.1642 64.159 53.1808C64.9365 52.2039 65.7795 51.2413 66.7087 50.3499C67.4133 49.6538 68.1486 49.0085 68.9354 48.4096C72.7853 45.5049 100.212 24.9222 115.09 13.7675C120.783 9.4894 124.631 6.59836 124.631 6.59836V0.864087ZM130.646 12.4178V12.4289C129.395 15.1084 126.857 19.822 123.048 23.5267C122.345 24.2177 121.605 24.8649 120.821 25.4637C116.974 28.3665 89.5418 48.9492 74.664 60.1039C68.9705 64.3729 65.1232 67.262 65.1232 67.262V73.0121H100.256C117.541 73.0121 131.552 59.1851 131.552 42.1249V41.8167L125.905 41.7194C123.524 56.1667 110.542 67.2045 94.8779 67.2045C91.0682 67.2045 87.4103 66.5475 84.0274 65.3473L107.395 48.0782L107.694 47.8568L125.524 34.47C125.737 34.3042 125.943 34.1403 126.143 33.9769C128.144 32.3065 129.656 30.1664 130.562 27.7932V27.7794C131.204 26.0979 131.552 24.3007 131.552 22.4689V10.3235C131.552 10.3235 131.253 11.1366 130.646 12.4178ZM176.827 93.1153L172.05 108.429L166.088 93.1153H156.776C157.369 93.5965 157.719 93.9766 157.996 94.7323C158.345 95.4904 158.45 96.0063 158.345 96.8657L156.115 115.759C155.975 116.722 155.8 117.273 155.242 118.098C154.894 118.547 154.649 118.821 154.164 119.167H162.496C162.007 118.959 161.727 118.786 161.379 118.443C160.856 117.962 160.404 117.549 160.473 116.826L161.87 102.097L166.646 114.693C167.169 116.172 168.18 117.203 169.085 117.89C170.376 118.821 171.247 119.372 172.818 119.752L178.257 102.337L179.686 116.273C179.756 116.962 179.651 117.443 179.336 118.098C179.093 118.616 178.745 118.924 178.152 119.167H188.893C188.333 118.924 187.95 118.616 187.705 118.098C187.392 117.443 187.427 116.962 187.392 116.273L184.95 96.0063C184.848 95.2853 184.918 94.8014 185.265 94.2162C185.616 93.5965 185.998 93.3888 186.624 93.1152L176.827 93.1153ZM131.013 93.1153C131.991 93.4236 132.827 94.3894 132.827 95.5597C132.862 95.9025 132.794 96.1102 132.689 96.4529L125.749 116.273C125.436 117.065 125.019 117.478 124.495 118.098C124.145 118.512 123.935 118.821 123.517 119.167H132.376C131.781 118.992 130.946 118.616 130.562 117.754C130.212 116.962 130.318 116.206 130.595 115.344L132.026 111.216H139.94L141.336 115.379C141.651 116.241 141.719 116.929 141.301 117.754C140.883 118.579 140.15 118.992 139.559 119.167H152.077C151.414 118.579 151.031 118.201 150.508 117.514C149.983 116.826 149.635 116.377 149.322 115.552L141.093 93.1153H131.013ZM135.897 99.8606L138.687 107.431H133.107L135.897 99.8606ZM101.172 93.1153L99.0455 98.932C100.336 98.1399 101.172 97.863 102.6 97.4163C104.762 96.7619 107.587 97.1074 108.425 97.1419L109.155 97.1766L97.2309 119.167H118.745L120.907 112.73L119.932 113.418C119.548 113.658 116.549 115.312 113.341 115.312C109.783 115.344 108.25 115.035 107.691 114.9L119.476 93.1152L101.172 93.1153ZM80.7103 93.1153L75.9319 108.429L69.9696 93.1153H60.6598C61.2526 93.5965 61.6008 93.9766 61.8807 94.7323C62.2288 95.4904 62.334 96.0063 62.2288 96.8657L59.9967 115.759C59.8571 116.722 59.6844 117.273 59.1266 118.098C58.7785 118.547 58.533 118.821 58.0434 119.167H66.3793C65.8889 118.959 65.6116 118.786 65.2635 118.443C64.7408 117.962 64.2854 117.549 64.3556 116.826L65.7512 102.097L70.5276 114.693C71.0504 116.172 72.0615 117.203 72.9694 117.89C74.2604 118.821 75.1313 119.372 76.7003 119.752L82.1417 102.337L83.5704 116.273C83.6379 116.962 83.5353 117.443 83.2203 118.098C82.9774 118.616 82.6275 118.924 82.0365 119.167H92.775C92.2172 118.924 91.8321 118.616 91.5892 118.098C91.2762 117.443 91.3113 116.962 91.2762 116.273L88.8344 96.0063C88.7292 95.2853 88.8021 94.8014 89.1494 94.2162C89.4949 93.5965 89.88 93.3888 90.5079 93.1152L80.7103 93.1153ZM34.8972 93.1153C35.8753 93.4236 36.7111 94.3894 36.7111 95.5597C36.7435 95.9025 36.6761 96.1102 36.5708 96.4529L29.6332 116.273C29.3176 117.065 28.9 117.478 28.3772 118.098C28.0265 118.512 27.8188 118.821 27.3985 119.167H36.2558C35.6649 118.992 34.8271 118.616 34.444 117.754C34.094 116.962 34.1991 116.206 34.479 115.344L35.9077 111.216H43.824L45.2176 115.379C45.5326 116.241 45.6027 116.929 45.1852 117.754C44.765 118.579 44.0318 118.992 43.4409 119.167H55.9582C55.2952 118.579 54.9127 118.201 54.3872 117.514C53.8644 116.826 53.5164 116.377 53.204 115.552L44.9747 93.1153H34.8972ZM39.7782 99.8606L42.5681 107.431H36.991L39.7782 99.8606ZM5.0538 93.1153L2.92705 98.932C4.21538 98.1399 5.05381 97.863 6.48449 97.4163C8.64644 96.7619 11.4687 97.1074 12.3044 97.1419L13.0396 97.1766L1.11328 119.167H22.6275L24.7887 112.73L23.8133 113.418C23.4301 113.658 20.4304 115.312 17.2205 115.312C13.6676 115.344 12.1337 115.035 11.574 114.9L23.36 93.1152L5.0538 93.1153ZM119.035 132.674C118.463 132.823 117.929 133.047 117.429 133.316C116.278 133.95 115.384 134.83 114.731 135.956C114.091 137.083 113.768 138.336 113.768 139.744C113.768 141.163 114.1 142.442 114.768 143.557C115.433 144.681 116.372 145.563 117.595 146.195C118.806 146.817 120.224 147.135 121.827 147.135C123.088 147.135 124.215 146.934 125.212 146.547C126.223 146.149 127.045 145.563 127.71 144.787L125.879 142.712C124.834 143.755 123.515 144.271 121.911 144.271C120.651 144.271 119.605 143.967 118.748 143.345C117.905 142.725 117.382 141.878 117.179 140.822H128.637C128.674 140.389 128.683 140.062 128.683 139.827C128.683 138.35 128.376 137.046 127.745 135.922C127.117 134.807 126.249 133.927 125.119 133.305C124.622 133.026 124.099 132.814 123.538 132.674C122.838 132.473 122.1 132.379 121.304 132.379C120.496 132.379 119.747 132.473 119.035 132.674ZM118.533 136.037C119.294 135.392 120.212 135.077 121.304 135.077C122.42 135.077 123.347 135.406 124.099 136.051C124.846 136.694 125.285 137.539 125.441 138.583H117.156C117.321 137.528 117.775 136.673 118.533 136.037ZM83.3672 132.674C83.129 132.717 82.9166 132.777 82.6902 132.838C81.6096 133.141 80.6945 133.586 79.9215 134.162L81.2635 136.611C81.8101 136.169 82.4778 135.816 83.2739 135.555C84.0699 135.311 84.8772 135.18 85.6971 135.18C86.8969 135.18 87.8002 135.45 88.407 135.991C89.0257 136.53 89.3222 137.304 89.3222 138.313V138.525H85.5543C83.4632 138.525 81.9313 138.924 80.944 139.698C79.9685 140.483 79.4803 141.527 79.4803 142.817C79.4803 143.651 79.7066 144.389 80.1598 145.047C80.5986 145.702 81.2405 146.218 82.0597 146.584C82.8795 146.946 83.8318 147.135 84.9243 147.135C86.0195 147.135 86.9578 146.969 87.7301 146.641C88.503 146.301 89.0959 145.819 89.5234 145.188V146.946H92.7446V138.5C92.7446 136.447 92.1749 134.925 91.0333 133.904C90.3915 133.33 89.5954 132.92 88.6339 132.674C87.896 132.473 87.0391 132.379 86.1009 132.379C85.1505 132.379 84.2354 132.473 83.3672 132.674ZM83.5822 144.142C83.0939 143.78 82.8444 143.299 82.8444 142.688C82.8444 141.409 83.8317 140.765 85.8043 140.765H89.3221V142.442C89.0495 143.158 88.5849 143.709 87.9193 144.096C87.2543 144.483 86.4932 144.681 85.6382 144.681C84.7588 144.681 84.0812 144.506 83.5822 144.142ZM73.9686 132.674C72.72 133.013 71.7816 133.669 71.151 134.643V132.545H67.8946V146.946H71.3171V139.956C71.3171 138.525 71.6857 137.422 72.4347 136.659C73.1818 135.885 74.2187 135.512 75.5469 135.512C75.785 135.512 76.0484 135.533 76.3429 135.593V132.379C75.4535 132.379 74.6667 132.473 73.9686 132.674ZM108.598 132.545L108.54 132.674L103.929 143.227L99.4493 132.674L99.3884 132.545H95.8356L95.8939 132.674L102.099 146.946H105.617L111.82 132.674L111.88 132.545H108.598ZM133.331 146.946H136.754V132.672H133.331V146.946ZM53.0029 132.673V135.348H55.403V142.278C55.403 143.861 55.8418 145.07 56.7219 145.891C57.5901 146.724 58.8249 147.135 60.4316 147.135C61.0708 147.135 61.6776 147.052 62.2474 146.888C62.831 146.734 63.3167 146.487 63.7112 146.16L62.7589 143.766C62.2473 144.156 61.6081 144.354 60.8464 144.354C60.1934 144.354 59.6818 144.165 59.3363 143.803C58.9908 143.439 58.8247 142.898 58.8247 142.195V135.348H62.7349V132.674L58.7307 132.673L55.2761 132.673L53.0029 132.673Z" fill="white"/>
<path d="M55.2761 128.847V132.673L58.7307 132.673V128.847H55.2761Z" fill="white"/>
</svg>
