<svg width="80" height="80" viewBox="0 0 80 80" fill="none" xmlns="http://www.w3.org/2000/svg">
<g clip-path="url(#clip0_1491_22357)">
<rect width="80" height="80" rx="40" fill="white"/>
<circle cx="40" cy="40" r="40" fill="#D1D5DB"/>
<path d="M40 40C45.5228 40 50 35.5228 50 30C50 24.4772 45.5228 20 40 20C34.4772 20 30 24.4772 30 30C30 35.5228 34.4772 40 40 40Z" stroke="white" stroke-width="5.05263"/>
<path d="M50.0001 44H50.7041C52.1663 44.0004 53.578 44.5347 54.674 45.5026C55.77 46.4704 56.4748 47.8051 56.6561 49.256L57.4381 55.504C57.5085 56.0669 57.4583 56.6382 57.2909 57.1802C57.1235 57.7222 56.8428 58.2224 56.4674 58.6476C56.0919 59.0728 55.6303 59.4133 55.1132 59.6464C54.5961 59.8796 54.0354 60.0001 53.4681 60H26.5321C25.9649 60.0001 25.4041 59.8796 24.887 59.6464C24.3699 59.4133 23.9083 59.0728 23.5329 58.6476C23.1574 58.2224 22.8767 57.7222 22.7093 57.1802C22.542 56.6382 22.4918 56.0669 22.5621 55.504L23.3421 49.256C23.5235 47.8044 24.229 46.4692 25.3258 45.5012C26.4226 44.5333 27.8353 43.9994 29.2981 44H30.0001" stroke="white" stroke-width="5.05263" stroke-linecap="round" stroke-linejoin="round"/>
</g>
<defs>
<clipPath id="clip0_1491_22357">
<rect width="80" height="80" rx="40" fill="white"/>
</clipPath>
</defs>
</svg>
