<svg width="110" height="88" viewBox="0 0 110 88" fill="none" xmlns="http://www.w3.org/2000/svg">
<path fill-rule="evenodd" clip-rule="evenodd" d="M72.1536 0.513788H51.8144C41.8081 0.513788 33.6976 8.73559 33.6976 18.8764V19.0612L36.9587 19.1392C37.6276 14.96 39.7443 11.2627 42.7919 8.56441C42.7987 8.55043 42.7987 8.55043 42.8052 8.55043C42.8742 8.48754 42.9512 8.41764 43.0271 8.3547C43.0608 8.31897 43.1026 8.2848 43.1378 8.25725C43.1715 8.22853 43.2053 8.20132 43.2405 8.18073C46.3992 5.54495 50.4809 3.96576 54.9284 3.96576C57.176 3.96576 59.3291 4.37113 61.3132 5.10385L60.3007 5.87381L60.3631 5.88738L37.1859 23.431C37.0613 23.5281 36.9453 23.6256 36.8261 23.7242C34.8477 25.421 33.6976 27.924 33.6976 30.5664V37.7852C33.6976 37.7852 34.8558 34.5841 37.1437 31.621C37.5938 31.0401 38.0819 30.4678 38.6198 29.9378C39.0278 29.5239 39.4534 29.1402 39.909 28.7841C42.1379 27.057 58.0166 14.8186 66.63 8.18607C69.9263 5.64235 72.1536 3.92335 72.1536 3.92335V0.513788ZM75.6365 7.38356V7.39018C74.912 8.98335 73.4428 11.7861 71.2373 13.9889C70.8304 14.3997 70.402 14.7845 69.9481 15.1406C67.7207 16.8666 51.839 29.1049 43.2255 35.7374C39.9293 38.2758 37.7019 39.9936 37.7019 39.9936V43.4126H58.0422C68.049 43.4126 76.1609 35.1911 76.1609 25.0472V24.864L72.8914 24.8061C71.513 33.3964 63.9972 39.9594 54.9283 39.9594C52.7227 39.9594 50.605 39.5688 48.6465 38.8552L62.1751 28.587L62.3483 28.4554L72.6711 20.4957C72.7941 20.3971 72.9132 20.2996 73.0293 20.2025C74.1875 19.2093 75.0632 17.9368 75.5877 16.5257V16.5175C75.9593 15.5177 76.1608 14.4491 76.1608 13.3599V6.13833C76.1608 6.13833 75.9878 6.62178 75.6365 7.38356ZM102.372 55.3658L99.6071 64.471L96.1553 55.3658H90.7638C91.1074 55.652 91.3101 55.878 91.4706 56.3273C91.6722 56.7781 91.7331 57.0848 91.6722 57.5958L90.3815 68.8296C90.3003 69.4024 90.1991 69.7297 89.8762 70.2202C89.6746 70.4873 89.5329 70.6504 89.2517 70.8558H94.0754C93.7926 70.7323 93.6306 70.6298 93.4291 70.4255C93.1264 70.1393 92.8643 69.894 92.9046 69.4641L93.713 60.7065L96.4782 68.1956C96.7809 69.0751 97.3663 69.6886 97.8904 70.0967C98.6378 70.6504 99.142 70.9778 100.051 71.2037L103.201 60.849L104.028 69.1353C104.068 69.5449 104.007 69.8311 103.825 70.2202C103.684 70.5285 103.483 70.7118 103.14 70.8558H109.358C109.034 70.7117 108.812 70.5285 108.67 70.2202C108.489 69.8311 108.509 69.5449 108.489 69.1353L107.075 57.0848C107.016 56.6561 107.057 56.3684 107.258 56.0205C107.461 55.652 107.682 55.5285 108.045 55.3658L102.372 55.3658ZM75.8487 55.3658C76.415 55.5491 76.8988 56.1234 76.8988 56.8193C76.9191 57.0231 76.88 57.1466 76.8191 57.3504L72.8011 69.1352C72.6199 69.6062 72.3782 69.8516 72.0751 70.2202C71.8725 70.4667 71.751 70.6504 71.5089 70.8558H76.6379C76.2935 70.7517 75.8096 70.5284 75.5878 70.0158C75.3852 69.5449 75.446 69.0956 75.6066 68.5831L76.4352 66.1282H81.0168L81.8252 68.6037C82.0075 69.1162 82.0466 69.5255 81.8049 70.0159C81.5628 70.5064 81.1387 70.7518 80.7966 70.8558H88.0434C87.6595 70.5064 87.4381 70.2819 87.1351 69.8734C86.8313 69.4641 86.6298 69.197 86.4486 68.7066L81.6846 55.3658H75.8487ZM78.676 59.3766L80.2913 63.8777H77.0609L78.676 59.3766ZM58.5721 55.3658L57.3411 58.8244C58.0882 58.3534 58.5721 58.1888 59.3992 57.9232C60.6508 57.5341 62.2863 57.7395 62.7713 57.7601L63.1942 57.7807L56.2906 70.8558H68.7462L69.9978 67.0284L69.4331 67.438C69.2113 67.5805 67.4746 68.564 65.6177 68.564C63.5577 68.5831 62.6701 68.3994 62.3467 68.3187L69.1695 55.3658L58.5721 55.3658ZM46.726 55.3658L43.9596 64.471L40.5078 55.3658H35.1178C35.4611 55.652 35.6627 55.878 35.8247 56.3273C36.0262 56.7781 36.0871 57.0848 36.0262 57.5958L34.734 68.8296C34.6532 69.4024 34.5532 69.7297 34.2302 70.2202C34.0287 70.4873 33.8866 70.6504 33.6031 70.8558H38.4291C38.1452 70.7323 37.9847 70.6298 37.7832 70.4255C37.4805 70.1393 37.2169 69.894 37.2575 69.4641L38.0655 60.7065L40.8308 68.1956C41.1334 69.0751 41.7188 69.6886 42.2445 70.0967C42.9919 70.6504 43.4961 70.9778 44.4044 71.2037L47.5547 60.849L48.3819 69.1353C48.421 69.5449 48.3615 69.8311 48.1792 70.2202C48.0386 70.5285 47.836 70.7118 47.4938 70.8558H53.7109C53.3879 70.7117 53.165 70.5285 53.0244 70.2202C52.8432 69.8311 52.8635 69.5449 52.8432 69.1353L51.4295 57.0848C51.3686 56.6561 51.4108 56.3684 51.6118 56.0205C51.8119 55.652 52.0348 55.5285 52.3983 55.3658L46.726 55.3658ZM20.2027 55.3658C20.7689 55.5491 21.2528 56.1234 21.2528 56.8193C21.2716 57.0231 21.2325 57.1466 21.1716 57.3504L17.1551 69.1352C16.9724 69.6062 16.7306 69.8516 16.4279 70.2202C16.2249 70.4667 16.1046 70.6504 15.8613 70.8558H20.9892C20.6471 70.7517 20.1621 70.5284 19.9403 70.0158C19.7376 69.5449 19.7985 69.0956 19.9606 68.5831L20.7877 66.1282H25.3708L26.1776 68.6037C26.36 69.1162 26.4006 69.5255 26.1589 70.0159C25.9156 70.5064 25.4911 70.7518 25.149 70.8558H32.3959C32.012 70.5064 31.7906 70.2819 31.4863 69.8734C31.1837 69.4641 30.9822 69.197 30.8013 68.7066L26.037 55.3658H20.2027ZM23.0285 59.3766L24.6437 63.8777H21.4149L23.0285 59.3766ZM2.92491 55.3658L1.69363 58.8244C2.43951 58.3534 2.92491 58.1888 3.7532 57.9232C5.00486 57.5341 6.63878 57.7395 7.12264 57.7601L7.54829 57.7807L0.643555 70.8558H13.0991L14.3504 67.0284L13.7857 67.438C13.5638 67.5805 11.8272 68.564 9.96878 68.564C7.91184 68.5831 7.0238 68.3994 6.69974 68.3187L13.5233 55.3658L2.92491 55.3658ZM68.9141 78.887C68.5831 78.9759 68.2736 79.1091 67.9843 79.2691C67.3181 79.6461 66.8001 80.1691 66.422 80.839C66.0515 81.5088 65.865 82.2539 65.865 83.0911C65.865 83.9348 66.0569 84.6952 66.4434 85.358C66.8289 86.0266 67.3721 86.5512 68.08 86.9267C68.7815 87.2964 69.6021 87.4855 70.5304 87.4855C71.2603 87.4855 71.9131 87.3663 72.49 87.136C73.0754 86.8991 73.5512 86.5512 73.9363 86.0895L72.8766 84.8555C72.2713 85.476 71.5078 85.7828 70.5791 85.7828C69.8493 85.7828 69.244 85.6018 68.7479 85.2321C68.2598 84.8637 67.9572 84.3596 67.8396 83.7321H74.4731C74.4945 83.4747 74.4999 83.2802 74.4999 83.1404C74.4999 82.2624 74.3217 81.4871 73.9566 80.8184C73.5931 80.1556 73.0904 79.6321 72.4361 79.2625C72.1484 79.0967 71.8457 78.9705 71.5213 78.887C71.1159 78.7678 70.6887 78.7119 70.2279 78.7119C69.7601 78.7119 69.3264 78.7677 68.9141 78.887ZM68.6234 80.8871C69.064 80.5035 69.5953 80.316 70.2278 80.316C70.8738 80.316 71.4105 80.5117 71.8457 80.8953C72.2782 81.2774 72.5322 81.7802 72.6226 82.4007H67.8261C67.9219 81.7732 68.1843 81.2649 68.6234 80.8871ZM48.2643 78.887C48.1263 78.9129 48.0034 78.9487 47.8723 78.9845C47.2467 79.165 46.7169 79.4295 46.2694 79.7719L47.0463 81.228C47.3628 80.9651 47.7493 80.7555 48.2102 80.6006C48.6711 80.4554 49.1384 80.3773 49.6131 80.3773C50.3077 80.3773 50.8307 80.5376 51.182 80.8595C51.5402 81.1802 51.7119 81.6404 51.7119 82.2403V82.3665H49.5304C48.3198 82.3665 47.4329 82.6033 46.8613 83.0635C46.2966 83.5306 46.0139 84.1511 46.0139 84.9184C46.0139 85.4142 46.1449 85.8526 46.4073 86.2444C46.6614 86.6335 47.033 86.9402 47.5073 87.1581C47.9819 87.3732 48.5332 87.4854 49.1657 87.4854C49.7998 87.4854 50.343 87.3867 50.7901 87.1922C51.2376 86.9895 51.5809 86.7033 51.8283 86.3279V87.3732H53.6933V82.3513C53.6933 81.1309 53.3634 80.2254 52.7025 79.6185C52.331 79.2776 51.8701 79.0337 51.3134 78.887C50.8862 78.7677 50.3901 78.7119 49.8469 78.7119C49.2967 78.7119 48.7669 78.7677 48.2643 78.887ZM48.3887 85.7058C48.106 85.4911 47.9615 85.2046 47.9615 84.8415C47.9615 84.0812 48.5331 83.698 49.6752 83.698H51.7118V84.6952C51.554 85.1211 51.285 85.4484 50.8997 85.6787C50.5146 85.909 50.0741 86.0266 49.579 86.0266C49.0699 86.0266 48.6776 85.9225 48.3887 85.7058ZM42.8229 78.887C42.1001 79.0885 41.5568 79.4787 41.1917 80.0581V78.8104H39.3064V87.3732H41.2879V83.2168C41.2879 82.3665 41.5013 81.7103 41.9349 81.2567C42.3674 80.7966 42.9677 80.5745 43.7367 80.5745C43.8746 80.5745 44.027 80.5869 44.1975 80.6227V78.7118C43.6826 78.7118 43.2271 78.7677 42.8229 78.887ZM62.8713 78.8104L62.8377 78.887L60.1686 85.1622L57.5749 78.887L57.5397 78.8104H55.4828L55.5165 78.887L59.1089 87.3732H61.1456L64.7368 78.887L64.7717 78.8104H62.8713ZM77.1908 87.3732H79.1722V78.8858H77.1908V87.3732ZM30.6849 78.8869V80.4774H32.0745V84.5976C32.0745 85.5388 32.3285 86.258 32.838 86.7457C33.3407 87.2415 34.0556 87.4854 34.9857 87.4854C35.3558 87.4854 35.7071 87.4361 36.037 87.3391C36.3749 87.247 36.6561 87.1006 36.8844 86.9061L36.3331 85.4826C36.0369 85.7144 35.6669 85.832 35.2259 85.832C34.8478 85.832 34.5516 85.7198 34.3516 85.5047C34.1516 85.288 34.0555 84.9661 34.0555 84.5483V80.4775H36.3192V78.887L34.001 78.8869L32.001 78.8869L30.6849 78.8869Z" fill="#125D98"/>
<path d="M32.001 76.6115V78.8869L34.001 78.8869V76.6115H32.001Z" fill="#125D98"/>
</svg>
